<?xml version="1.0" standalone="no"?>
<!DOCTYPE svg PUBLIC "-//W3C//DTD SVG 20010904//EN"
 "http://www.w3.org/TR/2001/REC-SVG-20010904/DTD/svg10.dtd">
<svg version="1.0" xmlns="http://www.w3.org/2000/svg"
 width="512.000000pt" height="512.000000pt" viewBox="0 0 512.000000 512.000000"
 preserveAspectRatio="xMidYMid meet">

<g transform="translate(0.000000,512.000000) scale(0.100000,-0.100000)"
fill="#000000" stroke="none">
<path d="M325 5100 c-18 -19 -12 -92 184 -2287 200 -2252 201 -2268 225 -2292
20 -19 186 -69 888 -268 474 -134 886 -246 913 -249 44 -5 164 26 939 244 723
203 893 254 912 273 24 24 25 42 225 2292 196 2195 202 2268 184 2287 -18 20
-30 20 -2235 20 -2205 0 -2217 0 -2235 -20z m3626 -938 l22 -19 -21 -238 c-15
-166 -27 -246 -37 -262 l-15 -23 -1035 0 c-640 0 -1043 -4 -1059 -10 -14 -5
-28 -20 -31 -32 -3 -13 3 -131 15 -262 16 -187 24 -243 36 -258 16 -17 66 -18
1015 -20 934 -3 999 -4 1016 -20 16 -17 14 -58 -56 -820 -40 -442 -75 -818
-78 -836 -12 -73 -4 -69 -593 -233 -300 -83 -558 -151 -575 -151 -16 0 -275
68 -575 151 -453 126 -549 155 -566 175 -26 29 -26 31 -60 483 -23 300 -26
364 -15 377 12 14 47 16 262 16 236 0 250 -1 269 -20 11 -11 20 -27 20 -36 0
-82 34 -351 47 -370 17 -26 30 -31 358 -120 130 -35 229 -56 260 -56 28 0 142
25 260 57 326 88 341 93 358 119 18 27 83 642 72 677 -4 11 -18 24 -32 30 -14
5 -397 9 -957 9 -891 0 -934 1 -949 18 -14 15 -29 159 -89 837 l-72 818 23 18
c22 18 71 19 1391 19 1315 0 1369 -1 1391 -18z"/>
</g>
</svg>
