<?xml version="1.0" standalone="no"?>
<!DOCTYPE svg PUBLIC "-//W3C//DTD SVG 20010904//EN"
 "http://www.w3.org/TR/2001/REC-SVG-20010904/DTD/svg10.dtd">
<svg version="1.0" xmlns="http://www.w3.org/2000/svg"
 width="2560.000000pt" height="624.000000pt" viewBox="0 0 2560.000000 624.000000"
 preserveAspectRatio="xMidYMid meet">

<g transform="translate(0.000000,624.000000) scale(0.100000,-0.100000)"
fill="#000000" stroke="none">
<path d="M10270 6234 c-272 -49 -462 -239 -615 -612 -129 -316 -222 -786 -265
-1342 -39 -501 -39 -1176 0 -1739 l10 -144 -36 -136 c-150 -569 -415 -1135
-641 -1371 -115 -121 -216 -160 -299 -117 -211 110 -303 708 -273 1788 13 499
14 492 -54 566 -52 56 -108 73 -241 73 -153 0 -261 -15 -298 -41 -40 -29 -73
-103 -97 -220 -42 -204 -66 -449 -76 -779 -3 -107 -11 -247 -16 -310 -14 -148
-77 -398 -128 -505 -109 -227 -362 -485 -536 -546 -68 -24 -108 -24 -160 0
-157 71 -223 373 -196 888 6 120 23 340 38 488 32 330 33 498 4 608 -41 158
-121 257 -263 326 -102 51 -189 73 -411 106 -205 31 -335 57 -431 86 -70 22
-73 25 -226 179 -200 203 -223 215 -395 215 -190 0 -259 -34 -307 -153 -23
-56 -23 -62 -24 -477 0 -413 -1 -423 -28 -580 -122 -706 -263 -1156 -451
-1440 -196 -296 -427 -319 -621 -63 -55 74 -148 261 -189 381 l-29 85 72 183
c523 1341 729 2491 602 3359 -112 766 -490 1271 -925 1235 -233 -20 -393 -87
-542 -228 -292 -277 -431 -754 -459 -1577 -9 -271 17 -809 57 -1174 5 -54 8
-101 5 -104 -3 -3 -38 5 -78 16 -259 77 -613 36 -903 -103 -629 -303 -961
-1056 -804 -1826 144 -704 686 -1183 1377 -1216 334 -16 645 75 896 261 83 61
232 204 302 289 l39 49 79 -111 c160 -226 288 -349 431 -418 322 -153 735 -15
1038 346 350 417 605 1063 808 2045 21 104 41 191 43 194 3 2 105 -17 228 -43
248 -53 294 -71 324 -132 17 -35 19 -67 21 -358 3 -750 29 -1044 118 -1369
118 -430 325 -659 652 -722 100 -19 260 -18 342 2 209 51 454 227 712 510 92
101 116 122 124 110 5 -8 31 -52 58 -98 124 -217 286 -376 468 -463 280 -132
606 -90 875 113 252 191 489 547 655 987 28 75 34 85 37 60 6 -60 54 -238 87
-319 253 -628 732 -961 1306 -907 497 46 857 316 1099 822 80 168 190 533 190
631 0 28 17 48 42 48 35 0 215 63 303 106 50 24 123 68 163 99 45 33 74 50 77
42 2 -6 15 -65 30 -130 61 -270 164 -557 286 -797 251 -495 563 -764 950 -821
164 -24 429 6 601 67 438 157 761 550 907 1104 16 63 33 138 37 165 7 54 19
85 34 85 21 0 231 95 314 142 48 28 121 77 161 109 l73 57 16 -86 c83 -428
239 -823 437 -1112 282 -412 664 -605 1107 -562 334 33 595 160 830 406 248
260 433 667 468 1032 l6 71 77 6 c76 6 318 63 384 90 l35 15 37 -116 c77 -242
196 -505 318 -705 281 -459 624 -723 1017 -782 364 -56 665 46 1141 384 l46
33 101 -67 c358 -234 887 -363 1332 -326 703 60 1277 426 1730 1103 46 68 96
151 113 186 27 58 29 70 25 145 -3 60 -11 97 -30 139 -81 176 -263 354 -343
334 -36 -9 -63 -42 -100 -123 -19 -40 -60 -119 -91 -175 -353 -635 -817 -971
-1374 -995 -150 -7 -294 8 -445 47 -121 30 -300 99 -299 115 1 5 38 31 82 56
247 142 528 412 707 679 31 47 85 144 120 215 104 215 151 391 162 610 25 520
-213 886 -657 1007 -75 20 -107 23 -270 23 -160 -1 -198 -4 -280 -24 -343 -85
-600 -266 -792 -556 -202 -304 -299 -689 -285 -1130 9 -276 41 -442 128 -659
57 -140 61 -125 -66 -211 -168 -113 -299 -159 -455 -159 -184 -1 -311 56 -465
209 -186 184 -347 487 -460 866 -19 64 -35 122 -35 129 0 7 35 51 78 99 504
557 834 1319 967 2232 53 367 70 831 41 1087 -63 540 -277 837 -659 916 -99
21 -310 21 -395 1 -512 -121 -852 -842 -932 -1980 -13 -183 -13 -678 0 -880
20 -314 61 -648 115 -939 14 -75 25 -141 25 -149 0 -18 -162 -72 -274 -92
-121 -21 -137 -20 -144 8 -13 50 -106 221 -162 296 -232 314 -623 567 -827
536 -61 -9 -138 -80 -186 -173 -104 -199 -90 -440 42 -707 129 -260 347 -478
534 -533 l58 -17 -7 -40 c-13 -84 -64 -264 -99 -350 -105 -261 -263 -438 -465
-521 -53 -22 -85 -28 -175 -32 -103 -4 -117 -2 -196 25 -313 108 -530 451
-594 936 -19 151 -20 444 0 610 l15 127 94 193 c358 729 619 1595 711 2352 22
177 31 535 17 655 -19 158 -71 289 -161 410 -188 250 -566 334 -844 188 -76
-40 -226 -186 -286 -278 -340 -521 -494 -1648 -421 -3085 6 -104 12 -213 16
-242 l5 -52 -88 -89 c-74 -75 -103 -96 -183 -135 -52 -26 -116 -53 -141 -61
l-46 -13 -17 61 c-71 254 -345 549 -651 701 -126 62 -206 85 -296 85 -81 0
-123 -20 -171 -84 -162 -217 -114 -569 130 -935 108 -163 312 -352 415 -383
20 -6 37 -17 37 -25 0 -35 -45 -216 -77 -306 -68 -196 -158 -343 -279 -456
-124 -116 -256 -171 -409 -171 -157 0 -289 57 -418 179 -256 244 -380 639
-364 1161 9 309 15 335 119 544 271 543 506 1227 631 1841 116 566 145 1068
77 1315 -41 144 -139 299 -242 381 -122 97 -266 143 -443 143 -104 0 -130 -4
-193 -26 -101 -36 -173 -81 -251 -158 -294 -291 -472 -879 -548 -1810 -22
-276 -25 -1172 -5 -1502 14 -214 14 -218 -6 -250 -30 -48 -119 -131 -184 -172
-59 -38 -185 -92 -235 -102 l-29 -6 -12 85 c-39 270 -209 498 -472 636 -172
90 -362 125 -484 89 -115 -34 -215 -224 -216 -408 0 -196 104 -471 254 -671
82 -109 224 -244 304 -289 l62 -35 -6 -40 c-12 -79 -56 -241 -90 -330 -105
-273 -278 -468 -483 -546 -69 -27 -221 -37 -302 -20 -134 28 -281 126 -384
254 -112 140 -191 315 -238 527 -41 183 -50 300 -44 545 8 307 15 343 92 495
393 776 691 1792 756 2577 17 209 7 515 -20 618 -71 266 -252 456 -496 520
-60 16 -229 28 -275 19z m10351 -647 c122 -81 182 -317 182 -707 1 -589 -160
-1256 -435 -1805 -123 -244 -273 -481 -289 -453 -24 43 -72 496 -89 833 -38
792 41 1481 211 1841 111 234 304 369 420 291z m-17747 -88 c73 -57 146 -301
192 -640 24 -180 30 -728 10 -959 -36 -412 -106 -768 -220 -1114 -51 -155
-145 -386 -156 -386 -44 0 -167 383 -245 760 -68 330 -95 600 -95 944 0 522
70 960 193 1202 85 167 237 259 321 193z m7530 -28 c106 -117 49 -716 -140
-1466 -90 -354 -258 -835 -292 -835 -17 0 -27 225 -26 615 0 395 10 595 45
875 66 536 191 830 355 830 28 0 47 -6 58 -19z m3425 -7 c12 -15 27 -45 33
-68 19 -62 15 -373 -6 -531 -39 -289 -121 -685 -208 -1005 -90 -331 -241 -730
-259 -682 -17 44 -31 492 -25 737 18 691 82 1131 200 1380 65 139 125 194 208
195 28 0 42 -6 57 -26z m3378 -9 c12 -8 30 -36 40 -62 28 -75 25 -414 -6 -623
-78 -529 -245 -1175 -391 -1511 -57 -135 -66 -139 -77 -43 -13 126 -10 978 5
1144 41 458 107 778 195 944 67 126 172 194 234 151z m5893 -2701 c81 -36 144
-104 166 -180 25 -85 23 -255 -5 -357 -59 -223 -233 -462 -499 -684 -112 -94
-321 -249 -326 -241 -1 1 -16 35 -33 73 -35 81 -66 188 -84 295 -16 95 -16
345 0 430 67 354 270 610 541 685 75 20 166 13 240 -21z m-21425 -189 c33 -8
87 -29 120 -45 72 -35 175 -115 175 -135 0 -20 92 -322 155 -510 30 -88 90
-245 135 -349 l80 -189 -21 -66 c-125 -382 -409 -621 -782 -661 -462 -48 -843
285 -927 812 -16 98 -8 346 15 448 9 41 34 120 56 175 111 285 329 480 594
531 90 17 317 11 400 -11z"/>
<path d="M7740 4779 c-270 -29 -476 -279 -457 -554 31 -441 551 -651 880 -355
220 197 227 549 17 760 -114 114 -271 167 -440 149z"/>
</g>
</svg>
