<?xml version="1.0" standalone="no"?>
<!DOCTYPE svg PUBLIC "-//W3C//DTD SVG 20010904//EN"
 "http://www.w3.org/TR/2001/REC-SVG-20010904/DTD/svg10.dtd">
<svg version="1.0" xmlns="http://www.w3.org/2000/svg"
 width="827.000000pt" height="98.000000pt" viewBox="0 0 827.000000 98.000000"
 preserveAspectRatio="xMidYMid meet">

<g transform="translate(0.000000,98.000000) scale(0.100000,-0.100000)"
fill="#000000" stroke="none">
<path d="M1605 851 c-54 -14 -95 -41 -123 -83 -26 -40 -27 -47 -30 -192 -2
-141 -1 -154 21 -196 16 -30 39 -55 71 -75 45 -28 54 -29 155 -30 102 0 110 1
156 30 56 35 94 98 95 158 l0 37 -53 0 -54 0 -12 -40 c-20 -66 -43 -80 -131
-80 -68 0 -79 3 -99 24 -28 30 -40 81 -41 166 0 79 12 125 42 157 19 20 31 23
98 23 87 0 115 -14 128 -63 8 -31 10 -32 65 -35 55 -3 57 -2 57 23 0 73 -59
148 -134 170 -52 16 -159 18 -211 6z"/>
<path d="M130 565 l0 -285 60 0 60 0 0 285 0 285 -60 0 -60 0 0 -285z"/>
<path d="M700 800 l0 -50 90 0 90 0 0 -235 0 -235 60 0 60 0 0 235 0 235 90 0
90 0 0 50 0 50 -240 0 -240 0 0 -50z"/>
<path d="M2020 602 c0 -213 2 -251 16 -271 22 -31 73 -51 129 -51 l45 0 0 50
c0 48 -1 50 -28 50 -51 0 -52 7 -52 247 l0 223 -55 0 -55 0 0 -248z"/>
<path d="M2740 565 l0 -285 55 0 c44 0 55 3 55 16 0 14 3 14 28 -2 38 -26 144
-25 197 2 59 31 79 79 79 189 1 104 -17 153 -68 184 -56 34 -143 37 -218 6
-16 -6 -18 1 -18 84 l0 91 -55 0 -55 0 0 -285z m284 3 c10 -14 16 -44 16 -83
0 -84 -16 -105 -81 -105 -64 0 -85 11 -99 56 -15 44 -5 102 23 132 30 32 119
32 141 0z"/>
<path d="M3980 846 c0 -2 45 -123 100 -268 64 -170 107 -269 121 -280 12 -10
38 -18 59 -18 37 0 39 2 58 53 11 28 59 152 106 275 47 123 86 228 86 233 0 5
-26 9 -58 9 l-59 0 -67 -193 c-37 -106 -71 -198 -75 -205 -4 -7 -37 73 -78
190 l-70 203 -62 3 c-33 2 -61 1 -61 -2z"/>
<path d="M4570 565 l0 -285 60 0 60 0 0 285 0 285 -60 0 -60 0 0 -285z"/>
<path d="M4750 800 l0 -50 90 0 90 0 0 -235 0 -235 60 0 60 0 0 235 0 235 90
0 90 0 0 50 0 50 -240 0 -240 0 0 -50z"/>
<path d="M5520 588 c0 -145 4 -268 8 -274 18 -27 56 -34 195 -34 151 0 196 8
236 44 68 60 66 196 -3 241 l-25 17 20 31 c24 40 25 125 3 168 -29 56 -76 69
-266 69 l-168 0 0 -262z m311 152 c14 -8 19 -21 19 -53 0 -24 -5 -48 -12 -55
-8 -8 -47 -12 -110 -12 l-98 0 0 65 0 65 91 0 c50 0 99 -5 110 -10z m37 -236
c26 -18 30 -69 8 -100 -13 -16 -29 -19 -130 -22 l-116 -4 0 71 0 71 108 0 c81
0 113 -4 130 -16z"/>
<path d="M6070 565 l0 -285 54 0 54 0 4 129 c3 121 5 131 27 155 20 22 33 26
78 26 48 0 54 -3 63 -26 6 -14 10 -84 10 -155 l0 -129 55 0 55 0 0 158 c0 172
-8 201 -66 238 -37 25 -150 25 -187 2 -14 -10 -29 -18 -32 -18 -3 0 -5 43 -5
95 l0 95 -55 0 -55 0 0 -285z"/>
<path d="M8000 602 c0 -213 2 -251 16 -271 22 -31 73 -51 129 -51 l45 0 0 50
c0 48 -1 50 -28 50 -51 0 -52 7 -52 247 l0 223 -55 0 -55 0 0 -248z"/>
<path d="M485 694 c-11 -3 -30 -7 -42 -10 -13 -2 -38 -18 -57 -34 -43 -39 -61
-105 -53 -202 11 -131 62 -173 212 -172 144 0 197 40 211 156 15 124 -15 206
-86 243 -29 15 -150 28 -185 19z m135 -119 c16 -15 20 -31 20 -90 0 -91 -16
-110 -95 -110 -77 0 -95 20 -95 102 0 72 11 100 43 113 32 14 105 5 127 -15z"/>
<path d="M6671 690 c-59 -13 -108 -52 -122 -99 -6 -21 -10 -78 -8 -129 4 -101
19 -131 80 -167 26 -15 52 -19 124 -20 106 0 156 19 193 75 22 32 23 44 20
142 -3 120 -15 147 -79 179 -41 22 -148 31 -208 19z m132 -99 c44 -17 61 -109
33 -176 -12 -27 -22 -35 -50 -41 -20 -3 -52 -3 -72 0 -28 6 -38 14 -50 41 -27
65 -11 159 30 175 28 12 79 12 109 1z"/>
<path d="M7203 689 c-18 -5 -35 -14 -38 -19 -9 -15 -25 -12 -25 5 0 11 -12 15
-50 15 l-50 0 0 -285 0 -285 55 0 55 0 0 91 c0 69 3 89 13 85 62 -25 90 -29
149 -18 106 20 138 69 138 212 0 96 -10 128 -52 167 -38 36 -129 51 -195 32z
m116 -114 c21 -21 26 -114 8 -157 -17 -40 -53 -55 -106 -43 -41 9 -63 37 -68
89 -10 88 35 141 112 131 22 -3 46 -12 54 -20z"/>
<path d="M7638 691 c-52 -11 -87 -37 -104 -76 -21 -52 -19 -55 44 -55 46 0 60
4 70 20 10 16 23 20 66 20 58 0 86 -19 86 -58 0 -20 -4 -21 -27 -15 -16 5 -60
8 -99 7 -111 0 -164 -41 -164 -127 0 -82 46 -123 147 -133 49 -5 65 -2 106 19
44 23 47 23 47 6 0 -16 8 -19 51 -19 l50 0 -3 169 c-3 184 -6 194 -70 227 -32
17 -150 26 -200 15z m153 -258 c19 -19 -29 -61 -76 -69 -73 -10 -119 31 -78
72 14 13 29 15 81 11 35 -3 68 -9 73 -14z"/>
<path d="M2250 543 c1 -211 25 -255 148 -270 43 -5 72 3 135 35 4 2 7 -3 7
-12 0 -13 11 -16 55 -16 l55 0 0 205 0 205 -54 0 -54 0 -4 -129 c-3 -121 -5
-131 -27 -155 -32 -34 -83 -43 -116 -22 -25 16 -25 18 -25 161 l0 145 -60 0
-60 0 0 -147z"/>
<path d="M3450 490 l0 -50 135 0 135 0 0 50 0 50 -135 0 -135 0 0 -50z"/>
</g>
</svg>
